<mxfile host="app.diagrams.net" agent="Mozilla/5.0 (X11; Ubuntu; Linux x86_64; rv:140.0) Gecko/20100101 Firefox/140.0" version="27.1.6">
  <diagram name="Page-1" id="POaLV1qd_8ivgcaJ0k6t">
    <mxGraphModel dx="3056" dy="1821" grid="1" gridSize="10" guides="1" tooltips="1" connect="1" arrows="1" fold="1" page="1" pageScale="1" pageWidth="850" pageHeight="1100" math="0" shadow="0">
      <root>
        <mxCell id="0" />
        <mxCell id="1" parent="0" />
        <mxCell id="8z2NHTdnz_yu78FJvaMC-19" style="edgeStyle=orthogonalEdgeStyle;rounded=0;orthogonalLoop=1;jettySize=auto;html=1;exitX=0.5;exitY=1;exitDx=0;exitDy=0;" parent="1" edge="1">
          <mxGeometry relative="1" as="geometry">
            <mxPoint x="-1400" y="-680" as="sourcePoint" />
            <mxPoint x="-1400" y="-680" as="targetPoint" />
          </mxGeometry>
        </mxCell>
        <mxCell id="Z1u9556wt53OnKgccqqB-5" value="" style="rounded=1;whiteSpace=wrap;html=1;strokeColor=#22D234;strokeWidth=3;align=center;verticalAlign=middle;fontFamily=Helvetica;fontSize=12;fontColor=default;labelBackgroundColor=none;fillColor=none;" parent="1" vertex="1">
          <mxGeometry x="-1160" y="-690" width="140" height="60" as="geometry" />
        </mxCell>
        <mxCell id="Z1u9556wt53OnKgccqqB-13" value="" style="rounded=1;whiteSpace=wrap;html=1;strokeColor=#22D234;strokeWidth=3;align=center;verticalAlign=middle;fontFamily=Helvetica;fontSize=12;fontColor=default;labelBackgroundColor=none;fillColor=none;" parent="1" vertex="1">
          <mxGeometry x="-1160" y="-630" width="70" height="20" as="geometry" />
        </mxCell>
        <mxCell id="Z1u9556wt53OnKgccqqB-10" value="" style="rounded=1;whiteSpace=wrap;html=1;strokeColor=#22D234;strokeWidth=3;align=center;verticalAlign=middle;fontFamily=Helvetica;fontSize=12;fontColor=default;labelBackgroundColor=none;fillColor=none;" parent="1" vertex="1">
          <mxGeometry x="-900" y="-630" width="140" height="60" as="geometry" />
        </mxCell>
        <mxCell id="URa2SMM36MfCH6HbQujx-27" style="edgeStyle=orthogonalEdgeStyle;shape=connector;rounded=0;orthogonalLoop=1;jettySize=auto;html=1;exitX=1;exitY=0.5;exitDx=0;exitDy=0;entryX=0;entryY=0.5;entryDx=0;entryDy=0;strokeColor=#B3B3B3;strokeWidth=4;align=center;verticalAlign=middle;fontFamily=Helvetica;fontSize=12;fontColor=default;labelBackgroundColor=none;endArrow=classic;" parent="1" source="Z1u9556wt53OnKgccqqB-5" target="Z1u9556wt53OnKgccqqB-10" edge="1">
          <mxGeometry relative="1" as="geometry" />
        </mxCell>
        <mxCell id="3F2ujctv_gnQJJmsJErZ-1" value="" style="rounded=1;whiteSpace=wrap;html=1;strokeColor=none;strokeWidth=3;align=center;verticalAlign=middle;fontFamily=Helvetica;fontSize=12;fontColor=default;fillColor=#142037;" vertex="1" parent="1">
          <mxGeometry x="-1480" y="-700" width="1031.25" height="180" as="geometry" />
        </mxCell>
        <mxCell id="3F2ujctv_gnQJJmsJErZ-2" value="" style="rounded=1;whiteSpace=wrap;html=1;strokeColor=#22D234;fillColor=#A2D2A4;strokeWidth=3;" vertex="1" parent="1">
          <mxGeometry x="-1450" y="-660" width="987.5" height="80" as="geometry" />
        </mxCell>
        <mxCell id="3F2ujctv_gnQJJmsJErZ-3" style="edgeStyle=orthogonalEdgeStyle;rounded=0;orthogonalLoop=1;jettySize=auto;html=1;exitX=0.5;exitY=1;exitDx=0;exitDy=0;" edge="1" parent="1">
          <mxGeometry relative="1" as="geometry">
            <mxPoint x="-1380" y="-660" as="sourcePoint" />
            <mxPoint x="-1380" y="-660" as="targetPoint" />
          </mxGeometry>
        </mxCell>
        <mxCell id="3F2ujctv_gnQJJmsJErZ-4" value="&lt;span style=&quot;color: rgb(179, 179, 179);&quot;&gt;&lt;font style=&quot;font-size: 23px;&quot;&gt;Document&lt;/font&gt;&lt;/span&gt;" style="text;html=1;align=center;verticalAlign=middle;resizable=0;points=[];autosize=1;strokeColor=none;fillColor=none;fontFamily=Helvetica;fontSize=12;fontColor=default;" vertex="1" parent="1">
          <mxGeometry x="-1455" y="-580" width="130" height="40" as="geometry" />
        </mxCell>
        <mxCell id="3F2ujctv_gnQJJmsJErZ-5" value="" style="rounded=1;whiteSpace=wrap;html=1;strokeColor=none;strokeWidth=3;align=center;verticalAlign=middle;fontFamily=Helvetica;fontSize=12;fontColor=default;fillColor=#22D234;" vertex="1" parent="1">
          <mxGeometry x="-1440" y="-650" width="120" height="30" as="geometry" />
        </mxCell>
        <mxCell id="3F2ujctv_gnQJJmsJErZ-6" value="" style="rounded=1;whiteSpace=wrap;html=1;strokeColor=none;strokeWidth=3;align=center;verticalAlign=middle;fontFamily=Helvetica;fontSize=12;fontColor=default;fillColor=#22D234;" vertex="1" parent="1">
          <mxGeometry x="-1190" y="-650" width="70" height="30" as="geometry" />
        </mxCell>
        <mxCell id="3F2ujctv_gnQJJmsJErZ-7" value="" style="rounded=1;whiteSpace=wrap;html=1;strokeColor=none;strokeWidth=3;align=center;verticalAlign=middle;fontFamily=Helvetica;fontSize=12;fontColor=default;fillColor=#22D234;" vertex="1" parent="1">
          <mxGeometry x="-1060" y="-650" width="100" height="30" as="geometry" />
        </mxCell>
        <mxCell id="3F2ujctv_gnQJJmsJErZ-8" value="" style="rounded=1;whiteSpace=wrap;html=1;strokeColor=none;strokeWidth=3;align=center;verticalAlign=middle;fontFamily=Helvetica;fontSize=12;fontColor=default;fillColor=#22D234;" vertex="1" parent="1">
          <mxGeometry x="-830" y="-650" width="90" height="30" as="geometry" />
        </mxCell>
        <mxCell id="3F2ujctv_gnQJJmsJErZ-9" value="" style="rounded=1;whiteSpace=wrap;html=1;strokeColor=none;strokeWidth=3;align=center;verticalAlign=middle;fontFamily=Helvetica;fontSize=12;fontColor=default;fillColor=#22D234;" vertex="1" parent="1">
          <mxGeometry x="-620" y="-650" width="150" height="30" as="geometry" />
        </mxCell>
        <mxCell id="3F2ujctv_gnQJJmsJErZ-11" value="" style="rounded=1;whiteSpace=wrap;html=1;strokeColor=none;strokeWidth=3;align=center;verticalAlign=middle;fontFamily=Helvetica;fontSize=12;fontColor=default;fillColor=#22D234;" vertex="1" parent="1">
          <mxGeometry x="-1210" y="-620" width="120" height="30" as="geometry" />
        </mxCell>
        <mxCell id="3F2ujctv_gnQJJmsJErZ-12" value="" style="rounded=1;whiteSpace=wrap;html=1;strokeColor=none;strokeWidth=3;align=center;verticalAlign=middle;fontFamily=Helvetica;fontSize=12;fontColor=default;fillColor=#22D234;" vertex="1" parent="1">
          <mxGeometry x="-820" y="-620" width="90" height="30" as="geometry" />
        </mxCell>
        <mxCell id="3F2ujctv_gnQJJmsJErZ-13" value="&lt;font style=&quot;font-size: 23px;&quot;&gt;Elon Musk has shared a photo of the spacesuit designed by SpaceX. This is the second image shared of the new design and the first to feature the spacesuitâ€™s full-body look.&lt;/font&gt;" style="text;html=1;align=center;verticalAlign=middle;whiteSpace=wrap;rounded=0;" vertex="1" parent="1">
          <mxGeometry x="-1461.25" y="-655" width="1010" height="70" as="geometry" />
        </mxCell>
      </root>
    </mxGraphModel>
  </diagram>
</mxfile>
